<svg xmlns="http://www.w3.org/2000/svg" class="icon icon--logo icon--logo--oxford" viewBox="0 0 104 104">
  <title>University of Oxford</title>
  <path fill="#002147" d="M0 0h104v104H0z"></path><g fill="#fff"><path d="M22.8 86.44a6.79 6.79 0 0 1-6.94 6.89 6.82 6.82 0 1 1 0-13.64 6.74 6.74 0 0 1 6.94 6.75zm-2.21.07c0-3.62-1.76-6.16-4.73-6.16-3.23 0-4.73 3-4.73 6.16 0 3.63 1.76 6.16 4.73 6.16 3.23 0 4.73-3 4.73-6.16zM65.11 86.44a6.93 6.93 0 1 1-6.93-6.75 6.78 6.78 0 0 1 6.93 6.75zm-2.19.07c0-3.62-1.76-6.16-4.74-6.16-3.22 0-4.72 3-4.72 6.16 0 3.63 1.75 6.16 4.72 6.16 3.23 0 4.74-3 4.74-6.16zM70.47 86.59h1.65c2.5 0 3-1.58 3-3.08a2.83 2.83 0 0 0-1.69-2.72 4.94 4.94 0 0 0-2-.26h-1v6.06zm3 2.12c-.78-1.1-1.07-1.5-2-1.5h-1v4.47c0 .37.15.55.56.62l1.5.33v.48h-5.91v-.48L68 92.3c.4-.11.55-.25.55-.62V81.34c0-.37-.15-.51-.55-.62l-1.36-.33v-.48h5.76a8.06 8.06 0 0 1 2.75.37 3.47 3.47 0 0 1 2.23 3.18c0 1.62-1.2 3-3.22 3.46V87c.4.18.63.44 2.06 2.31L78 91.68a1.54 1.54 0 0 0 1 .66l1.33.29v.48h-3.18c-.37 0-.56-.11-.88-.55l-2.75-3.85zM47.66 84.42h.55v4.4h-.55l-.33-1.32a.76.76 0 0 0-.85-.65h-3.19v4.83c0 .37.15.55.55.62l1.51.33v.48h-5.91v-.48l1.36-.33c.4-.11.55-.25.55-.62V81.34c0-.37-.15-.51-.55-.62l-1.36-.33v-.48h10v3.31h-.55l-.63-2c-.14-.51-.36-.7-.8-.7h-4.17v5.69h3.19a.8.8 0 0 0 .85-.66l.33-1.14zM81.36 93.11v-.48l1.36-.33c.41-.11.55-.25.55-.62V81.34c0-.37-.14-.51-.55-.62l-1.36-.33v-.48h6.2a9.4 9.4 0 0 1 3.89.66 6.42 6.42 0 0 1 3.63 6A6.07 6.07 0 0 1 92 92.3a9.2 9.2 0 0 1-4.33.81zm3.86-12.58V91.9c0 .47.11.59.58.59h1.62a5.88 5.88 0 0 0 3.48-.81c1.36-1 2-2.79 2-5.06s-.62-4.43-2.46-5.5a6.55 6.55 0 0 0-3.3-.59zM28 92.63v.48h-4.69v-.48l1.17-.29a1.79 1.79 0 0 0 1-.59l4-5-4-5.36a1.61 1.61 0 0 0-1-.66l-1.11-.29v-.48h5.8v.48l-1.17.2c-.44.08-.33.26-.11.55l3 4.26h.08L34 81.19c.21-.29.29-.4-.12-.51l-1.17-.29v-.48h4.66v.48l-1.18.29a1.85 1.85 0 0 0-1 .59l-3.81 4.8 4.25 5.61a1.65 1.65 0 0 0 1 .66l1.1.29v.48h-5.8v-.48l1.25-.26c.44-.07.37-.21.15-.51L30 87.31l-3.26 4.52c-.23.29-.3.4.1.51l1.17.29zM14.07 73.7a2.29 2.29 0 0 1-1.68.61 2.39 2.39 0 0 1-1.69-.63 2.65 2.65 0 0 1-.55-2.07v-3.67h.75v3.94a1.73 1.73 0 0 0 .37 1.37 1.61 1.61 0 0 0 1.16.41 1.52 1.52 0 0 0 1.06-.39c.43-.43.4-.89.4-2v-3.3h.74v3.11c0 1.15.05 2.01-.56 2.62zM20.72 74.19l-3-5.13v5.13H17v-6.25h.77l3 5.15v-5.15h.69v6.25zM24.1 74.19v-6.25h.76v6.25zM29.54 74.19h-.87l-2.15-6.25h.78l1.83 5.52L31 67.94h.73zM33.43 74.19v-6.25h3.41v.62h-2.67v2.06h2.5v.61h-2.5v2.31h2.74v.65zM41.66 68.87a1.73 1.73 0 0 0-1.33-.34h-.69v2.34h.25a2.42 2.42 0 0 0 1.74-.39 1.22 1.22 0 0 0 0-1.61zm.69 5.32l-.72-1.62c-.45-1-.65-1.1-1.56-1.1h-.43v2.72h-.74v-6.25h1.35c.84 0 1.47 0 2 .48a1.72 1.72 0 0 1 .48 1.25 1.52 1.52 0 0 1-.38 1.08 1.73 1.73 0 0 1-1 .49.85.85 0 0 1 .52.25 2.88 2.88 0 0 1 .47.84l.83 1.86zM50.44 74.19v-6.25h.75v6.25zM55.48 68.56v5.63h-.75v-5.63h-1.85v-.62h4.46v.62zM60.94 71.72v2.47h-.74v-2.47l-2-3.78h.86l1.55 2.93 1.49-2.93h.81zM69.94 68.46c-1.22 0-2 1-2 2.59s.88 2.61 2.06 2.61 2-1.11 2-2.66-.84-2.54-2.06-2.54zm0 5.85a2.93 2.93 0 0 1-2.81-3.22c0-1.93 1.17-3.27 2.86-3.27s2.8 1.32 2.8 3.21-1.15 3.28-2.79 3.28zM75.6 68.56v2.06H78v.61h-2.4v3h-.75v-6.29h3.32v.62zM44.65 69.46a1.7 1.7 0 0 1 1.9-1.64 2.37 2.37 0 0 1 1.75.65l-.37.44a2.2 2.2 0 0 0-1.32-.48c-.81 0-1.25.42-1.25 1a.8.8 0 0 0 .29.63 3.55 3.55 0 0 0 .87.49 4.58 4.58 0 0 1 1.38.81 1.55 1.55 0 0 1 .47 1.13 1.81 1.81 0 0 1-2 1.83 2.82 2.82 0 0 1-1.87-.67l.34-.51a3 3 0 0 0 1.51.54c.94 0 1.29-.51 1.29-1.13a1 1 0 0 0-.33-.71 4.23 4.23 0 0 0-1.15-.66 3.54 3.54 0 0 1-1.16-.7 1.42 1.42 0 0 1-.35-1.02z"></path></g><path d="M73.38 25.63a1.93 1.93 0 0 0-.84-1.76 2.91 2.91 0 0 0-1.45-.28h-4.38v8.84h4.76c1.11 0 1.75.25 1.81 1.23h.11zM74 25.63a1.93 1.93 0 0 1 .84-1.76 3 3 0 0 1 1.45-.28h4.41v8.84h-4.8c-1.1 0-1.74.25-1.8 1.23H74z" fill="#fff"></path><path d="M81.61 24.25v9.34h-6.77l-.07.19c-.12.29-.34.57-1.07.57s-1-.28-1.07-.57l-.08-.19h-6.76v-9.34h-.61v.28l-.59-.18a.56.56 0 0 0-.53-.4.57.57 0 0 0-.56.56.56.56 0 0 0 .56.55.58.58 0 0 0 .36-.12l.76.23v.75l-.58-.11a.56.56 0 1 0-.51.79.58.58 0 0 0 .4-.18l.69.12v.77h-.61a.54.54 0 0 0-.47-.31.56.56 0 1 0 .45.88h.63v.84h-.61a.58.58 0 0 0-.46-.23.56.56 0 1 0 .47.85h.6v.76l-.67.12a.58.58 0 0 0-.41-.18.56.56 0 1 0 0 1.11.55.55 0 0 0 .51-.33l.57-.1v.76l-.74.22a.54.54 0 0 0-.35-.13.56.56 0 0 0 0 1.12.57.57 0 0 0 .53-.41l.56-.17v.73l-.82.35a.59.59 0 0 0-.3-.09.57.57 0 0 0-.56.56.56.56 0 0 0 1.11.1l.57-.25v.67h7a1.62 1.62 0 0 0 1.52.82 1.6 1.6 0 0 0 1.52-.75h7v-10z" fill="#fff"></path><g fill="#fff"><path d="M69.09 21.13c-1.41 0-2.55.22-2.55.49s1.14.49 2.55.49 2.56-.22 2.56-.49-1.14-.49-2.56-.49zM72.62 18.07l-1.48 1v.11l.35.16c.07 0 .07.09 0 .12l-.93.78h-.06l-.66-1v-.14l.44-.07V19l-1.14-1.61H69L67.85 19v.12l.45.07c.07 0 .09.08 0 .14l-.66 1h-.04l-.87-.78v-.12l.35-.16v-.11l-1.53-1h-.13l.91 2.76a8.26 8.26 0 0 1 2.74-.35 8.38 8.38 0 0 1 2.75.35l.9-2.76z"></path></g><g fill="#fff"><path d="M73.68 39.65c-1.41 0-2.55.21-2.55.48s1.14.49 2.55.49 2.56-.22 2.56-.49-1.14-.48-2.56-.48zM77.21 36.58l-1.48 1v.11l.35.16c.07 0 .07.08 0 .12l-.92.79h-.09l-.66-1c-.05-.06 0-.13 0-.14l.44-.07v-.12l-1.14-1.61h-.19l-1.15 1.61v.12l.45.07c.07 0 .09.08 0 .14l-.66 1h-.09l-.75-.76v-.12l.35-.16v-.11l-1.54-1H70l.91 2.77a10.65 10.65 0 0 1 5.49 0l.9-2.77z"></path></g><g fill="#fff"><path d="M78.27 21.13c-1.42 0-2.57.22-2.57.49s1.15.49 2.57.49 2.56-.22 2.56-.49-1.15-.49-2.56-.49zM81.79 18.07l-1.48 1v.11l.35.16c.07 0 .07.09 0 .12l-.93.78h-.08l-.67-1c-.05-.06 0-.13 0-.14l.44-.07V19l-1.14-1.61h-.19L77 19v.12l.45.07c.07 0 .09.08 0 .14l-.65 1h-.09l-.87-.79v-.12l.35-.15v-.17l-1.54-1h-.13l.91 2.76a10.94 10.94 0 0 1 5.49 0l.91-2.76z"></path></g><g fill="#002147"><path d="M67.84 25a.78.78 0 0 1 .57.18.53.53 0 0 1 .17.4c0 .48-.37.69-.82.69h-.5v-.08c.14 0 .15 0 .15-.23v-.64c0-.21 0-.23-.14-.24V25zm-.09 1c0 .18 0 .21.13.21s.34-.18.34-.53-.21-.54-.38-.54h-.08c-.01 0 0 0 0 .1zM70.06 25.61a.64.64 0 0 1-.66.68.63.63 0 0 1-.66-.64.66.66 0 0 1 .68-.68.62.62 0 0 1 .64.64zm-1 0c0 .35.13.61.32.61s.26-.16.26-.51-.14-.61-.3-.61-.23.14-.23.48zM71.78 25v.08c-.15 0-.16 0-.15.23v.65c0 .22 0 .22.15.23v.08h-.62v-.08c.15 0 .16 0 .16-.23v-.69l-.37 1h-.11l-.36-.91v.43a1.71 1.71 0 0 0 0 .33c0 .07 0 .09.18.09v.08h-.48v-.08c.09 0 .13 0 .14-.09s0-.17 0-.35v-.38c0-.25 0-.28-.15-.29V25h.45l.35.78.3-.78zM72.41 26c0 .21 0 .22.15.23v.08h-.63v-.08c.13 0 .15 0 .15-.23v-.64c0-.21 0-.23-.15-.24V25h.63v.08c-.14 0-.15 0-.15.24z"></path></g><g fill="#002147"><path d="M69.27 28.61h-.17l-.72-.92v.74c0 .07.07.09.2.09v.08h-.48v-.08c.08 0 .14 0 .15-.09s0-.17 0-.37v-.37-.22c0-.05-.08 0-.15-.06v-.08h.43l.65.81v-.26-.37c0-.06-.07-.09-.19-.1v-.08h.49v.08c-.09 0-.14 0-.15.1a2.41 2.41 0 0 0 0 .37z"></path><path d="M70.06 28.61l-.38-1c-.07-.17-.11-.18-.21-.19v-.08h.64v.08H70c-.07 0-.07 0-.05.09s.19.49.26.69c.06-.17.18-.54.21-.63s0-.14-.06-.15h-.05v-.08h.47v.08c-.12 0-.14 0-.21.2 0 0-.25.61-.4 1zM70.94 28.2c0 .11.15.33.35.33a.18.18 0 0 0 .18-.19c0-.12-.08-.18-.2-.24-.16-.07-.34-.18-.34-.39s.16-.4.47-.4a1.13 1.13 0 0 1 .18 0h.1a2.51 2.51 0 0 0 0 .3h-.08c0-.12-.11-.26-.26-.26a.16.16 0 0 0-.17.17c0 .09.08.15.2.2.18.08.34.18.34.4s-.2.42-.5.42a1.05 1.05 0 0 1-.21 0l-.12-.05-.07-.33z"></path></g><g fill="#002147"><path d="M68.41 30.63c0 .21 0 .22.14.24v.07h-.63v-.07c.14 0 .15 0 .15-.24V30c0-.22 0-.23-.15-.24v-.08h.63v.08c-.13 0-.14 0-.14.24zM69.17 30.65v.17a.3.3 0 0 0 .14 0 .26.26 0 0 0 .19-.06.56.56 0 0 0 .09-.19h.09c0 .07-.06.27-.07.33h-1v-.07c.15 0 .16 0 .16-.24V30c0-.22 0-.23-.14-.24v-.08h.63v.08c-.14 0-.16 0-.16.24zM70.26 30.65v.17a.28.28 0 0 0 .14 0 .27.27 0 0 0 .19-.06.56.56 0 0 0 .09-.19h.08a3.2 3.2 0 0 1-.07.33h-1v-.07c.14 0 .16 0 .16-.24V30c0-.22 0-.23-.14-.24v-.08h.63v.08c-.14 0-.16 0-.16.24zM71.2 31c-.14-.34-.32-.83-.39-1s-.11-.18-.2-.19v-.08h.63v.08h-.07c-.07 0-.07 0 0 .09s.18.5.26.68c0-.16.18-.53.21-.62s0-.15-.06-.15h-.06v-.08H72v.08c-.11 0-.13 0-.21.2s-.25.61-.39 1z"></path></g><g fill="#002147"><path d="M76.43 25v.08c-.15 0-.16 0-.15.23v.65c0 .22 0 .22.15.23v.08h-.61v-.08c.15 0 .15 0 .15-.23v-.69l-.38 1h-.1l-.36-.91v.43a1 1 0 0 0 0 .33c0 .07 0 .09.17.09v.08h-.48v-.08c.09 0 .13 0 .14-.09s0-.17 0-.35v-.38c0-.25 0-.28-.16-.29V25h.46l.34.78.4-.78zM77.07 26c0 .21 0 .22.14.23v.08h-.63v-.08c.14 0 .15 0 .15-.23v-.64c0-.21 0-.23-.15-.24V25h.63v.08c-.13 0-.14 0-.14.24zM78.51 26.28h-.16l-.72-.92v.36a2.41 2.41 0 0 0 0 .37c0 .06.06.09.19.09v.08h-.48v-.08c.08 0 .13 0 .14-.09a3.05 3.05 0 0 0 0-.37v-.36-.23a.18.18 0 0 0-.15-.06V25h.44l.64.82v-.27a2.41 2.41 0 0 0 0-.37c0-.07-.06-.1-.19-.1V25h.5v.08c-.1 0-.15 0-.16.1a2.41 2.41 0 0 0 0 .37zM79.32 26.18h.07c.07 0 .07 0 0-.1l-.07-.2H79l-.06.19c0 .08 0 .1.06.11h.06v.08h-.45v-.08c.1 0 .13 0 .19-.18l.39-1h.14l.12.36.25.66c.06.18.1.18.19.19v.08h-.62zm-.24-.42h.25l-.12-.37z"></path></g><g fill="#002147"><path d="M76.42 28.29c0 .21 0 .22.17.23v.08h-.68v-.08c.16 0 .18 0 .18-.23v-.86c-.13 0-.18 0-.21.07s0 .08-.08.18h-.08v-.39h1.1v.39h-.09a.49.49 0 0 0-.08-.2.29.29 0 0 0-.19-.05zM77.43 28.29c0 .21 0 .22.16.23v.08H77v-.08c.14 0 .15 0 .15-.23v-.64c0-.22 0-.23-.15-.24v-.08h.64v.08c-.14 0-.16 0-.16.24zM79.06 28a.64.64 0 0 1-.66.68.62.62 0 0 1-.65-.64.66.66 0 0 1 .68-.69.63.63 0 0 1 .63.65zm-1 0c0 .35.13.61.32.61s.26-.16.26-.51-.14-.61-.31-.61-.22.09-.22.43z"></path></g><g fill="#002147"><path d="M77 29.67v.08c-.15 0-.16 0-.15.23v.65c0 .22 0 .22.15.24v.07h-.6v-.07c.14 0 .15 0 .15-.24v-.69l-.38 1h-.11L75.7 30v.43a2.65 2.65 0 0 0 0 .33c0 .07 0 .08.17.1v.07h-.48v-.07c.09 0 .13 0 .15-.1s0-.17 0-.35v-.39c0-.25 0-.27-.16-.28v-.08h.46l.33.77.31-.77zM77.29 30c0-.22 0-.23-.14-.24v-.08h.92v.33H78a.5.5 0 0 0-.07-.19.35.35 0 0 0-.19 0c-.07 0-.08 0-.08.07v.38h.1c.17 0 .18 0 .19-.16H78v.46h-.09c0-.17 0-.19-.19-.19h-.1v.49a.28.28 0 0 0 .14 0 .25.25 0 0 0 .2-.06.53.53 0 0 0 .1-.2h.09a2.39 2.39 0 0 1-.07.35h-1v-.07c.15 0 .16 0 .16-.24zM78.88 30.87h.05c.08 0 .08 0 0-.09l-.07-.2h-.32v.18c0 .09 0 .11.06.11h.05v.07h-.45v-.07c.1 0 .12 0 .19-.19l.39-1h.13l.14.37c.08.24.17.46.24.66s.1.18.19.2v.07h-.6zm-.26-.43h.26l-.13-.37z"></path></g><path d="M71.93 46.62a.51.51 0 0 1-.51.51.51.51 0 1 1 0-1 .51.51 0 0 1 .51.49zM77.09 47.47a.51.51 0 0 1-.51.51.52.52 0 1 1 .51-.51zM74.17 10.63a.51.51 0 1 1-.51-.5.5.5 0 0 1 .51.5zM86.31 15.4a.51.51 0 0 1-.54.49.5.5 0 0 1-.48-.53.5.5 0 0 1 .53-.48.5.5 0 0 1 .49.52zM60.74 37.28a1.51 1.51 0 0 1 .29.9c0 .36-.12.64-.76 1.08l-1.83 1.32-.35-.49L60 38.73c.32-.23.47-.4.47-.65a.88.88 0 0 0-.18-.51.73.73 0 0 0-.63-.35c-.19 0-.39.13-.76.38l-1.73 1.17-.33-.47 1.64-1.12a2.3 2.3 0 0 1 1.17-.54 1.36 1.36 0 0 1 1.09.64zM54.85 33.69l3.51-1.23.19.53-2 2.45 2.53-1 .18.51-3.46 1.33-.18-.53 2-2.45-2.57.91zM54.33 30.9l3.67-.54.09.58-3.67.54zM54.22 26.48v-.61l3.67 1.48v.61l-3.76 1.13v-.62l3-.86zM57.57 18.19c-.52 0-.77.31-1.1.91l-.44.78 3.27 1.77.28-.51-1.36-.74.08-.15c.23-.41.31-.48.89-.42l1.06.09.3-.55-1.22-.1a1.65 1.65 0 0 0-.59 0 .7.7 0 0 0-.17.09 1.2 1.2 0 0 0 0-.2.79.79 0 0 0-.05-.3.89.89 0 0 0-.46-.52 1 1 0 0 0-.49-.15zm-.66 1.13c.22-.4.37-.55.6-.55a.79.79 0 0 1 .3.08.57.57 0 0 1 .28.34.51.51 0 0 1 0 .17 1.53 1.53 0 0 1-.26.67l-.07.14-1-.56zM61.62 13l.47-.37 2.26 2.95-.48.36zM63.66 11.51l2.4-1.25.23.45-.93.49 1.47 2.8-.52.28-1.48-2.84-.94.49zM69.64 9.14l.63-.14-.51 2.48.41 1.41-.57.11-.39-1.4-1.77-1.82.61-.18 1.27 1.32zM81 14.21L82.83 11l1.77 1.05-.26.43-1.26-.74-.53.88 1.2.7-.25.43-1.19-.7-.85 1.44zM90.47 22.46l1.35-1.61.21.63-1 1.15 1.49.33.2.61-2-.5-1.45 1.74-.2-.63 1.1-1.27-1.65-.37-.2-.62zM89.41 26.1l3.69-.3.17 2h-.51l-.11-1.46-1 .09.11 1.37h-.5l-.11-1.37-1.67.13zM91 29.4a1.94 1.94 0 0 0-1.13.34 1.6 1.6 0 0 0-.66 1.33 1.88 1.88 0 0 0 2.06 1.75 1.84 1.84 0 0 0 1.12-.34 1.64 1.64 0 0 0 .66-1.34A1.88 1.88 0 0 0 91 29.4zm.29 2.82c-.72 0-1.56-.39-1.56-1.12a1 1 0 0 1 .42-.85A1.4 1.4 0 0 1 91 30a1.77 1.77 0 0 1 1.39.58 1 1 0 0 1-.24 1.42 1.42 1.42 0 0 1-.82.22zM88.89 17.07a2.24 2.24 0 0 0-1.16.36 1.93 1.93 0 0 0-1 1.57 1.67 1.67 0 0 0 .26.88 1.64 1.64 0 0 0 1.39.78 2.22 2.22 0 0 0 1.17-.38 1.93 1.93 0 0 0 1-1.56 1.64 1.64 0 0 0-.27-.88 1.59 1.59 0 0 0-1.39-.77zm-.57 3a.92.92 0 0 1-.84-.46 1 1 0 0 1-.16-.53 1.44 1.44 0 0 1 .75-1.16 1.78 1.78 0 0 1 .92-.3.93.93 0 0 1 .84.46 1 1 0 0 1 .17.57 1.37 1.37 0 0 1-.73 1.11 1.9 1.9 0 0 1-.95.32zM78.78 9.44a1.79 1.79 0 0 0-1.71 1.44 2.15 2.15 0 0 0-.1.6 1.9 1.9 0 0 0 .21.95 1.65 1.65 0 0 0 1.45.83 1.49 1.49 0 0 0 .77-.19 2.21 2.21 0 0 0 1-1.89 1.85 1.85 0 0 0-.21-.91 1.62 1.62 0 0 0-1.41-.83zm-.19 3.3a1 1 0 0 1-.87-.53 1.31 1.31 0 0 1-.15-.66c0-.67.44-1.6 1.24-1.6a1.06 1.06 0 0 1 1 1.18c.03.53-.35 1.61-1.22 1.61zM58.26 22.87l.5.15-.56 2-3.59-1 .6-2.06.49.13-.45 1.49 1 .27.37-1.35.48.14-.38 1.36 1.12.3zM59.2 15.13a1.37 1.37 0 0 1 1-.54l.08.49a1.14 1.14 0 0 0-.72.37.71.71 0 0 0-.2.47.36.36 0 0 0 .14.3c.25.23.69 0 1-.13a2.14 2.14 0 0 1 .81-.21 1 1 0 0 1 .66.25 1 1 0 0 1 .38.79 1.29 1.29 0 0 1-.38.87 1.8 1.8 0 0 1-1.1.58l-.13-.49a1.46 1.46 0 0 0 .83-.43.69.69 0 0 0 .2-.46.53.53 0 0 0-.17-.38.42.42 0 0 0-.32-.1 2.2 2.2 0 0 0-.77.23 1.16 1.16 0 0 1-1.35 0 .9.9 0 0 1-.33-.7 1.26 1.26 0 0 1 .37-.91zM88.43 34.2l1.4.63-.07.15c-.19.44-.27.5-.85.51h-1.06l-.25.57h1.22a1.67 1.67 0 0 0 .59-.06l.16-.09V36a1.23 1.23 0 0 0 .07.39 1.07 1.07 0 0 0 1 .59c.6 0 .82-.36 1.11-1l.34-.79-3.37-1.52zm2.18 2.19a.61.61 0 0 1-.55-.37.52.52 0 0 1 0-.21 1.64 1.64 0 0 1 .2-.64l.06-.14 1.07.48-.12.29c-.27.44-.37.59-.66.59zM86.48 37.7a2.34 2.34 0 0 0-.69 1.47 1.86 1.86 0 0 0 .76 1.44 2 2 0 0 0 1.19.44c.51 0 .93-.15 1.57-1l.59-.74L87 37zm1.31 2.79a1.34 1.34 0 0 1-.85-.34 1.44 1.44 0 0 1-.6-1.06 1.62 1.62 0 0 1 .44-1l.24-.31 2.12 1.69-.16.2c-.4.53-.66.82-1.19.82z" fill="#fff"></path><path d="M94.92 28.33a21.23 21.23 0 1 0-33.2 17.51 5 5 0 0 0 4.83 3.69 5.1 5.1 0 0 0 1.81-.34 21.23 21.23 0 0 0 2.37.64 9.7 9.7 0 0 1-.86 1.77l.44.44a.77.77 0 0 1 .38-.1.8.8 0 0 1 0 1.59 1.14 1.14 0 0 1-.9-.51 3.43 3.43 0 0 0-.1.83c0 1.52 1.66 3.26 4 4 2.31-.71 4-2.47 4-4a2.71 2.71 0 0 0-.11-.83 1.15 1.15 0 0 1-.89.51.8.8 0 0 1 0-1.59.82.82 0 0 1 .41.12l.43-.42a9.4 9.4 0 0 1-.59-1.64 15.72 15.72 0 0 0 9.6-4.82 21 21 0 0 0 8.38-16.85zM66.55 48.94a4.39 4.39 0 0 1-4.37-4.39 4.46 4.46 0 0 1 .52-2.09l.72.63a3.49 3.49 0 0 0-.33 1.48A3.54 3.54 0 0 0 65 47.71a17.24 17.24 0 0 0 2.4 1.14 4.12 4.12 0 0 1-.85.09zm7.14-6.38A14 14 0 0 1 71 42.3a5 5 0 0 0-4.46-2.72 4.85 4.85 0 0 0-1.33.18 14.23 14.23 0 1 1 8.47 2.8zm3.16.25a4.9 4.9 0 0 0-.75 2.31 20.74 20.74 0 0 1-3.63-1.3 1.49 1.49 0 0 1 1.22-.66 14.93 14.93 0 0 0 3.16-.35zm-4.51.28a2 2 0 0 0-.43.48c-.53-.27-1.21-.61-1.65-.85a18.49 18.49 0 0 0 2.08.37zm-5.79-2.92a4.38 4.38 0 0 1 3.63 1.95 15.1 15.1 0 0 1-2.06-.69 3.54 3.54 0 0 0-1.5-.34 3.48 3.48 0 0 0-2.83 1.45c-.28-.15-.54-.31-.8-.47a4.36 4.36 0 0 1 3.56-1.9zm10.07 11.17a1.41 1.41 0 1 0 0 2.81 1.4 1.4 0 0 0 .34 0c-.17 1.18-1.54 2.5-3.31 3.09-1.75-.59-3.12-1.91-3.3-3.09a1.27 1.27 0 0 0 .34 0 1.35 1.35 0 0 0 1.42-1.4 1.41 1.41 0 0 0-1.39-1.41 9.43 9.43 0 0 0 .63-1.4 16.73 16.73 0 0 0 2.83.26 18.51 18.51 0 0 0 2.13-.11 9.52 9.52 0 0 0 .39 1.26zm-2.44-1.73a19 19 0 0 1-8.85-2.41 3 3 0 0 1-1.61-2.63 2.89 2.89 0 0 1 .2-1.06 18.87 18.87 0 0 0 2.44 1.78.72.72 0 0 0 .37.11.69.69 0 0 0 .69-.69.68.68 0 0 0-.42-.64c-.5-.22-1.56-.66-2.7-1.25a2.89 2.89 0 0 1 2.29-1.14 2.82 2.82 0 0 1 1.22.27l.78.45c2.49 1.52 8.87 5.4 16.58 3.27a15.68 15.68 0 0 1-10.99 3.94zm11.95-4.86a16.83 16.83 0 0 1-9.41.52c.09-1.23.59-2.54 1.37-2.78A14.87 14.87 0 1 0 64.54 40a4.93 4.93 0 0 0-2.1 1.73c-.27-.19-.53-.38-.78-.58l-.13.13a7.75 7.75 0 0 0 .72.75 4.85 4.85 0 0 0-.7 2.52v.43a20.59 20.59 0 1 1 24.56-.23z" fill="#fff"></path>
</svg>